<svg width="16" height="16" viewBox="0 0 16 16" fill="none" xmlns="http://www.w3.org/2000/svg">
<path d="M1.01062 14.9088L1.01328 14.9114M1.08231 14.9907L1.08363 15M1.00266 1.08066L1 1.0833M14.1464 7.29791L14.173 7.31114L14.1969 7.32304C14.9721 7.66286 15 7.98681 15 7.99871C15 8.01193 14.9721 8.33589 14.1969 8.67571L14.1716 8.68629L14.1477 8.69951L2.5054 14.5929C1.94254 14.8362 1.52835 14.9274 1.26019 14.9367C1.19986 14.9392 1.1394 14.9361 1.07965 14.9274C1.08162 14.8937 1.08561 14.8601 1.0916 14.8269C1.12877 14.6021 1.26418 14.2423 1.58411 13.7505C2.11512 13.0695 2.68064 12.1267 3.11872 11.139C3.5568 10.1527 3.91523 9.01553 3.91523 7.99871C3.91523 6.96338 3.54751 5.82624 3.10412 4.84116C2.68717 3.91567 2.17228 3.03712 1.56818 2.22044C1.24294 1.7365 1.10886 1.38213 1.07169 1.16396C1.06596 1.13073 1.06242 1.09716 1.06107 1.06347C1.1268 1.0523 1.19358 1.0483 1.26019 1.05157C1.52968 1.0595 1.94519 1.14809 2.5054 1.39139L14.1464 7.29791ZM1.06638 1L1.06372 1.00926C1.06372 1.00264 1.06638 1 1.06638 1Z" stroke="#A05DCD" stroke-width="1.5" stroke-linejoin="round"/>
</svg>
